<?xml version="1.0" encoding="UTF-8" standalone="no"?>
<!-- Created with Inkscape (http://www.inkscape.org/) -->

<svg
   version="1.1"
   id="svg1"
   width="2234"
   height="668"
   viewBox="0 0 2234 668"
   xmlns="http://www.w3.org/2000/svg"
   xmlns:svg="http://www.w3.org/2000/svg">
  <defs
     id="defs1" />
  <g
     id="g1">
    <path
       style="fill:#004394;fill-opacity:1"
       d="M 196.36661,550.91695 C 171.33088,547.77307 148.73648,530.3403 140.09443,507.5 c -1.24861,-3.3 -2.68602,-7.04545 -3.19424,-8.32323 -0.55167,-1.387 -0.91697,-64.69648 -0.90648,-157.102 0.0173,-152.73438 0.0444,-154.86328 2.04702,-161.17677 7.39744,-23.3209 24.22173,-39.81061 48.45927,-47.49559 5.79821,-1.83843 11.63328,-1.90241 173.5,-1.90241 162.33246,0 167.68511,0.0591 173.5,1.9171 24.76653,7.91332 41.84677,25.41227 48.62814,49.82024 1.76394,6.3489 1.87186,11.8118 1.87186,94.75 V 366 h -5 -5 l -0.001,-83.75 c -0.001,-87.08587 -0.13912,-90.3847 -4.26448,-102.01948 -5.79886,-16.35459 -20.91991,-30.03867 -40.23434,-36.41085 -5.91227,-1.95056 -333.08773,-1.95056 -339,0 -11.76321,3.8809 -18.80804,7.89853 -26,14.82768 -6.05852,5.83713 -8.33524,8.9136 -11.98554,16.19573 -6.7968,13.55924 -6.51634,6.35632 -6.4971,166.86476 0.0192,160.45564 -0.31353,152.09528 6.61913,166.29216 7.07215,14.48255 23.06404,27.13628 39.36351,31.14673 8.20182,2.01805 327.88366,2.00403 336,-0.0147 15.83301,-3.93812 32.25041,-16.69214 38.79619,-30.1392 6.67785,-13.71838 6.59427,-12.83324 6.9634,-73.7428 L 574.09441,380 h 4.9528 H 584 v 56.64219 c 0,54.61391 -0.0752,56.8967 -2.09956,63.75 -6.28432,21.27482 -21.30478,38.10221 -40.90044,45.82065 -15.8478,6.24221 -3.83069,5.86216 -178.94196,5.65922 -87.75692,-0.1017 -162.31806,-0.5315 -165.69143,-0.95511 z M 178,486.5 V 482 h 182 182 v 4.5 4.5 H 360 178 Z m 977.5132,1.0561 c -4.8634,-1.80938 -6.5132,-3.90379 -6.5132,-8.26867 0,-2.58191 0.5618,-3.58629 2.5,-4.46938 2.8769,-1.3108 3.11,-2.35087 1,-4.46091 -2.238,-2.23804 -1.82,-4.96024 1.1164,-7.27001 l 2.6163,-2.05804 -3.1163,-3.54934 c -2.3284,-2.65182 -3.1164,-4.51792 -3.1164,-7.37969 0,-7.51044 5.8341,-11.36724 16.6814,-11.02774 3.2002,0.10016 7.9949,-0.15704 10.6547,-0.57156 4.6919,-0.73119 4.8261,-0.68277 4.5,1.62278 -0.2747,1.94258 -0.8382,2.31775 -3.0861,2.05489 -1.9296,-0.22564 -2.75,0.12965 -2.75,1.19099 0,0.8319 0.45,1.79066 1,2.13058 1.4839,0.91711 1.211,7.19138 -0.4528,10.40881 -1.8071,3.49455 -5.6925,5.16232 -12.3815,5.31468 -3.4567,0.0787 -5.669,0.67516 -6.6903,1.80369 -2.4277,2.68258 0.2491,4.02727 9.7385,4.89219 9.4947,0.86539 12.467,2.1111 13.8753,5.81516 1.8959,4.98665 -0.7179,10.01925 -6.8447,13.17865 -3.7675,1.94275 -14.2686,2.30318 -18.7313,0.64292 z m 15.89,-2.69394 c 3.5285,-1.60769 4.9872,-6.19649 2.7834,-8.75581 -1.3313,-1.54613 -3.2411,-2.02693 -9.0662,-2.28253 -6.9746,-0.30604 -7.488,-0.17972 -9.3521,2.3013 -1.6924,2.25261 -1.7928,2.96213 -0.707,5 0.696,1.30619 1.9794,2.92307 2.852,3.59308 2.0155,1.54743 10.2175,1.63497 13.4899,0.14396 z M 1169.0249,456.25 c 4.2023,-5.3252 0.932,-15.25 -5.0249,-15.25 -4.0802,0 -6.5,3.35044 -6.5,9 0,8.49236 6.8318,12.19726 11.5249,6.25 z m 539.5045,31.79754 c -0.3574,-0.57821 0.4493,-1.46914 1.7926,-1.97985 2.3956,-0.91083 2.4499,-1.18863 2.8402,-14.545 0.5974,-20.44255 0.04,-27.32379 -2.2732,-28.05793 -4.0448,-1.28375 -2.1544,-2.69016 5.4225,-4.03427 3.3034,-0.586 3.8829,-0.40298 4.3473,1.3728 0.5325,2.03615 0.5555,2.03694 3.6885,0.12657 1.904,-1.161 4.9806,-1.92386 7.7678,-1.92612 8.5066,-0.007 12.8849,5.87721 12.8849,17.31626 0,6.96404 -2.0065,11.1493 -7.1836,14.98375 -2.8809,2.13372 -10.5221,2.8463 -14.6163,1.36303 -2.263,-0.81987 -2.2951,-0.73191 -2,5.49086 0.2747,5.79266 0.5326,6.43525 3.0694,7.64713 1.5232,0.72769 2.5472,1.68287 2.2754,2.12263 -0.7605,1.23048 -17.2613,1.34052 -18.0155,0.12014 z m 23.526,-18.07718 c 3.3095,-1.77122 5.2781,-6.95291 5.1836,-13.64424 -0.088,-6.24899 -0.9422,-8.88646 -3.8039,-11.74814 -2.0186,-2.01865 -7.3451,-2.02975 -10.2126,-0.0213 -2.0652,1.44656 -2.2225,2.32702 -2.2225,12.4433 0,10.11628 0.1573,10.99674 2.2225,12.4433 2.565,1.79659 6.07,2.00573 8.8329,0.52706 z m 89.1293,18.09869 c -8.1348,-2.06887 -10.6477,-8.95501 -4.9347,-13.52234 2.924,-2.33762 3.0745,-2.70095 1.5,-3.62217 -2.6418,-1.54571 -2.2666,-6.53992 0.634,-8.44052 l 2.3841,-1.56209 -2.8328,-2.83283 c -3.6817,-3.6817 -4.5217,-7.26145 -2.7785,-11.84145 2.151,-5.65167 5.4604,-6.95273 19.0932,-7.50644 10.9769,-0.44583 11.75,-0.35432 11.75,1.39078 0,1.42319 -0.7398,1.86801 -3.107,1.86801 -2.5633,0 -2.9825,0.30624 -2.3958,1.75 2.1164,5.20818 2.372,7.62731 1.1218,10.61811 -1.9942,4.77066 -4.1473,5.9652 -11.8488,6.5738 -5.1714,0.40865 -7.3521,1.01932 -8.1439,2.28057 -1.7075,2.71981 0.077,3.51089 10.3376,4.5839 8.3745,0.87574 9.7271,1.29559 11.75,3.6474 4.1582,4.83416 2.0273,11.56021 -4.7771,15.07891 -3.5462,1.83379 -13.2728,2.67558 -17.7521,1.53636 z m 14.7439,-3.03083 c 0.9884,-0.52898 2.3465,-2.28816 3.018,-3.90928 2.3675,-5.71561 -1.3268,-8.08824 -12.6399,-8.11793 -6.8958,-0.0181 -9.5791,5.80751 -4.8522,10.53444 1.9658,1.96576 3.4724,2.45455 7.5658,2.45455 2.8111,0 5.9199,-0.4328 6.9083,-0.96178 z m -2.4853,-28.26073 C 1834.2995,455.55512 1835,452.50524 1835,450 c 0,-6.05547 -2.1266,-9 -6.5,-9 -4.2856,0 -6.5,2.92567 -6.5,8.58765 0,7.95751 7.5729,12.71558 11.4433,7.18984 z M 1187.8,484.46667 c -0.2933,-0.29334 0.9817,-2.04834 2.8333,-3.9 4.0826,-4.08254 4.2409,-6.03855 0.6289,-7.76972 -3.3515,-1.60633 -4.0172,-4.30522 -1.6949,-6.87135 3.7116,-4.10126 9.4327,-1.09729 9.4327,4.9528 0,4.15329 -2.1325,8.21387 -6.0408,11.50248 -3.1383,2.64067 -4.1822,3.06274 -5.1592,2.08579 z M 868.5,472.6529 c -11.22463,-5.16201 -12.6566,-23.42076 -2.40907,-30.71765 4.36521,-3.1083 14.14478,-3.89896 18.75271,-1.51611 2.62296,1.35639 3.15636,2.21935 3.15636,5.10654 0,3.00961 -0.32401,3.47432 -2.42245,3.47432 -1.86986,0 -2.67928,-0.77821 -3.54837,-3.41157 -2.86459,-8.6798 -13.00931,-4.57221 -14.58024,5.90351 -1.11135,7.41098 1.34383,14.83242 5.64225,17.05522 4.05184,2.09528 7.11818,1.79998 11.3865,-1.09659 3.92258,-2.66192 5.69137,-2.52746 3.90961,0.29721 -3.33007,5.27926 -13.57769,7.8068 -19.8873,4.90512 z m 36.5,0.62557 c -3.6948,-1.38835 -7.38097,-4.9063 -9.09457,-8.67954 -5.75465,-12.67139 2.36076,-25.56347 16.09457,-25.56774 7.68249,-0.002 10.42211,1.57945 10.81037,6.2418 0.2819,3.38527 0.0827,3.72701 -2.17245,3.72701 -1.95088,0 -2.73033,-0.74996 -3.63807,-3.50045 -1.3129,-3.97813 -4.67183,-5.42567 -8.5207,-3.672 -5.80122,2.64321 -8.11082,12.69537 -4.69244,20.42317 2.58888,5.8526 6.03453,8.20225 10.87605,7.41658 1.99322,-0.32345 4.65119,-1.55306 5.90661,-2.73247 3.24747,-3.05084 5.25189,-1.45186 2.25584,1.79955 -4.06075,4.40684 -12.47917,6.55291 -17.82521,4.54409 z m 34.45042,-0.63011 c -6.51333,-2.95441 -11.2181,-11.66285 -9.97499,-18.46354 1.03012,-5.6355 5.01968,-11.71735 8.89159,-13.55469 5.12943,-2.43408 13.57757,-2.13495 17.7351,0.62794 9.57274,6.36159 10.44964,21.98397 1.63253,29.08432 -3.02171,2.43336 -4.89794,3.09709 -9.5,3.36073 -3.43602,0.19683 -6.95702,-0.22595 -8.78423,-1.05476 z m 11.77412,-2.61034 c 4.73944,-3.72805 6.17696,-16.26708 2.69538,-23.51102 -3.29725,-6.86041 -10.85145,-7.13568 -14.16837,-0.51628 -2.14331,4.27729 -2.33453,14.65825 -0.35718,19.39071 1.49384,3.57526 5.01871,6.59857 7.69328,6.59857 0.90345,0 2.76505,-0.88289 4.13689,-1.96198 z m 26.5701,2.46988 c -3.59788,-2.0281 -4.78217,-6.68992 -4.78906,-18.85152 -0.005,-9.00015 -0.17695,-9.88843 -2.00558,-10.36663 -3.11045,-0.8134 -2.4518,-3.28975 0.875,-3.28975 1.58125,0 4.28125,-0.28125 6,-0.625 L 981,438.75 v 13.06924 c 0,12.20198 0.15288,13.24696 2.30379,15.74755 1.91032,2.22088 2.82659,2.56348 5.36486,2.00599 1.6836,-0.36978 4.02189,-1.56746 5.19622,-2.66151 1.92778,-1.796 2.13513,-3.04712 2.13513,-12.88284 0,-10.0154 -0.16124,-10.94483 -2,-11.52843 -1.1,-0.34913 -2,-0.99648 -2,-1.43856 0,-1.00133 9.7112,-2.35794 11.0327,-1.54121 0.5509,0.34046 0.9673,6.82361 0.9673,15.06023 0,14.45616 0,14.46291 2.5,15.60149 3.7545,1.71065 3.0254,2.79859 -2,2.98472 -2.475,0.0917 -5.2875,0.20416 -6.25,0.25 -1.08659,0.0517 -1.87114,-0.76963 -2.06955,-2.16667 -0.39217,-2.76134 -0.56206,-2.76707 -4.11686,-0.13889 -3.68526,2.72463 -10.69589,3.4109 -14.26895,1.39679 z m 87.43436,0.82281 C 1062.1361,472.08629 1061,467.17523 1061,455.04966 V 443 h -2.5 c -1.5556,0 -2.5,-0.56667 -2.5,-1.5 0,-0.825 0.5966,-1.5 1.3257,-1.5 1.7297,0 5.2589,-3.8882 6.1268,-6.75 0.4638,-1.52972 1.461,-2.25 3.1149,-2.25 2.2164,0 2.4326,0.39991 2.4326,4.5 v 4.5 h 4.5 c 3.3333,0 4.5,0.38889 4.5,1.5 0,1.11111 -1.1667,1.5 -4.5,1.5 h -4.5 v 12.37756 c 0,14.08131 0.5587,15.30302 6.489,14.19047 2.6415,-0.49554 3.511,-0.31571 3.511,0.72614 0,2.76257 -9.3357,4.8211 -13.771,3.03654 z m 205.8187,-2.12912 c -3.9318,-3.93187 -4.1009,-8.32099 -0.4509,-11.70374 2.5707,-2.38239 4.9078,-3.35614 13.1532,-5.48014 4.1726,-1.07486 4.25,-1.17323 4.25,-5.40127 0,-8.97836 -9.5502,-10.68428 -11.8419,-2.11528 -0.5988,2.23915 -1.3895,2.99884 -3.1211,2.99884 -3.5854,0 -4.8826,-2.90091 -2.495,-5.57948 2.8691,-3.21867 7.6663,-4.92052 13.8701,-4.92052 4.3455,0 6.0557,0.49796 8.2821,2.41151 2.7441,2.35851 2.8168,2.69366 3.3058,15.25 0.486,12.47776 0.5648,12.84768 2.8076,13.16559 2.8944,0.41028 2.3411,2.38579 -0.9989,3.56655 -3.4458,1.21819 -7.5393,0.0305 -8.3146,-2.41238 -0.6355,-2.00211 -0.6572,-2.00131 -3.658,0.13546 -1.6603,1.18224 -4.9812,2.37073 -7.3797,2.64107 -3.8556,0.43459 -4.714,0.13841 -7.4087,-2.55621 z m 15.4978,-3.65614 c 1.8765,-1.87658 2.4545,-3.51093 2.4545,-6.94098 0,-2.46754 -0.3387,-4.69575 -0.7526,-4.95158 -1.15,-0.71075 -8.1348,1.93524 -10.3136,3.90702 -2.3367,2.11467 -2.479,5.21666 -0.3771,8.21758 2.059,2.93969 5.9166,2.8401 8.9888,-0.23204 z m 84.9169,5.39082 c -1.6706,-0.48585 -4.3296,-2.23199 -5.9088,-3.88032 -2.3708,-2.47454 -2.8587,-3.82455 -2.7995,-7.74466 0.066,-4.36311 0.4809,-5.13799 5.1222,-9.56551 l 5.0505,-4.8178 -1.9597,-3.21399 c -2.4802,-4.06775 -2.5798,-11.40266 -0.1949,-14.34695 2.5936,-3.20184 5.557,-4.36704 11.1063,-4.36704 6.5708,0 10.0145,2.78309 10.8133,8.7392 0.5257,3.91894 0.2777,4.52489 -3.3118,8.09402 -2.134,2.12188 -4.555,4.099 -5.38,4.3936 -1.1012,0.39323 0.087,2.1625 4.4687,6.65441 3.2828,3.36532 6.2649,6.11877 6.6269,6.11877 1.0729,0 5.0388,-9.97346 4.386,-11.02978 C 1399.1518,447.4366 1398.2335,447 1397.441,447 c -0.7926,0 -1.441,-0.45 -1.441,-1 0,-0.5641 2.8333,-1 6.5,-1 4.0376,0 6.5,0.41429 6.5,1.09362 0,0.60149 -0.8499,1.31588 -1.8887,1.58753 -1.0388,0.27165 -3.1293,2.81702 -4.6456,5.65638 -1.5162,2.83936 -3.4788,5.99954 -4.3612,7.02263 -1.5052,1.74502 -1.3382,2.09673 2.6974,5.68195 2.3661,2.10198 5.6286,4.11317 7.25,4.46929 5.1909,1.14012 3.1604,2.4886 -3.7472,2.4886 -5.8931,0 -7.0292,-0.31995 -9.4827,-2.67058 -2.6,-2.49087 -2.9089,-2.56073 -4.5914,-1.03814 -4.5401,4.10872 -12.1149,5.57983 -18.7682,3.64499 z m 15.0037,-4.62148 c 1.9436,-0.92687 3.5339,-2.06084 3.5339,-2.51995 0,-0.4591 -3.3133,-4.29053 -7.3629,-8.51428 l -7.3628,-7.67955 -2.6372,2.84552 c -3.9659,4.27934 -3.6728,9.71777 0.7629,14.15347 3.9029,3.9029 7.4903,4.3737 13.0661,1.71479 z m -1.5342,-27.21916 c 2.8875,-4.05513 2.8086,-10.46356 -0.1544,-12.53893 -6.8471,-4.79587 -11.7067,3.96776 -6.6959,12.07527 2.5517,4.12875 4.1629,4.23781 6.8503,0.46366 z m 101.4692,31.06076 c -6.5414,-3.06938 -8.9011,-7.26682 -8.9011,-15.83306 0,-8.00066 1.4829,-10.98507 7.4898,-15.07333 4.4684,-3.04117 13.821,-3.14808 18.5712,-0.21229 6.4044,3.95814 9.3677,15.41046 6.0451,23.36259 -3.3321,7.97487 -14.6656,11.76301 -23.205,7.75609 z m 11.482,-1.78708 c 3.3523,-2.34806 5.1169,-7.38383 5.1169,-14.60279 0,-10.34674 -4.5378,-16.10327 -11.3469,-14.3943 -3.8947,0.97752 -5.8616,4.80897 -6.4111,12.48908 -0.9159,12.80078 5.6648,21.39443 12.6411,16.50801 z M 1528,472.88157 c -4.5591,-1.80841 -8.7969,-6.86637 -10.0181,-11.95696 -0.9514,-3.966 -0.8723,-5.78982 0.4483,-10.33235 2.2653,-7.79243 6.4971,-10.91411 15.4594,-11.40397 5.6444,-0.30852 7.1084,-0.0199 10.0185,1.9752 6.6743,4.57583 9.221,11.00448 7.6586,19.33284 -1.7857,9.51837 -14.263,16.07568 -23.5667,12.38524 z m 11.9913,-3.71899 c 3.5726,-3.57265 4.7735,-10.4319 3.1799,-18.16258 -1.9052,-9.24203 -9.0074,-12.99663 -14.1764,-7.49442 -1.9842,2.11204 -2.4227,3.81639 -2.7919,10.85108 -0.337,6.42002 -0.053,9.15753 1.2321,11.86505 2.9043,6.12042 8.1485,7.34868 12.5563,2.94087 z m 108.6024,3.79615 c -4.3725,-1.30795 -9.2292,-6.58521 -10.6148,-11.53393 -2.2441,-8.01538 1.6207,-17.58333 8.4025,-20.80151 4.2539,-2.01858 11.8017,-2.0971 15.5443,-0.16171 2.9845,1.54336 6.0743,7.67714 6.0743,12.05866 V 455 h -10.941 c -6.043,0 -11.2113,0.43734 -11.5447,0.97693 -1.2133,1.96306 1.5682,8.91468 4.5813,11.45007 3.9164,3.29542 8.4983,3.33781 13.2364,0.12245 4.797,-3.25533 6.2215,-1.20974 1.7545,2.51946 -4.5431,3.79278 -10.1752,4.77961 -16.4928,2.88982 z M 1660,449.22251 c 0,-6.53543 -3.9525,-9.71293 -9.4552,-7.60133 -2.0923,0.80288 -4.5448,5.56738 -4.5448,8.82916 0,2.49006 0.1636,2.54966 7,2.54966 h 7 z m 23.5,23.36585 c -6.2189,-2.764 -9.5152,-8.46897 -9.478,-16.40346 0.029,-6.24803 3.0589,-12.65411 7.1699,-15.1605 3.9861,-2.43029 12.559,-2.7217 16.7229,-0.56845 3.2663,1.68906 6.0852,6.99093 6.0852,11.44518 V 455 h -11 -11 v 4.1 c 0,3.32941 0.639,4.73902 3.4,7.5 4.2203,4.22034 8.6657,4.52328 13.932,0.94945 4.797,-3.25533 6.2215,-1.20974 1.7545,2.51946 -4.8375,4.03853 -11.8941,5.04946 -17.5865,2.51945 z m 12.8501,-23.36116 c -0.2174,-4.746 -2.8234,-8.23388 -6.1232,-8.1954 -4.6057,0.0537 -8.2269,4.21167 -8.2269,9.44627 0,2.59979 0.027,2.60845 7.25,2.31574 L 1696.5,452.5 Z M 808,472.21924 c 0,-0.42942 1.24462,-1.25056 2.76583,-1.82475 2.45217,-0.92559 3.77712,-3.56427 11.6834,-23.26796 11.79395,-29.39237 10.9565,-29.36816 21.67263,-0.62653 6.52577,17.5027 8.36871,21.45798 11.06615,23.75 l 3.23644,2.75 h -9.71222 C 842.90408,473 839,472.59802 839,472 c 0,-0.55 0.585,-1 1.3,-1 3.18163,0 3.55969,-2.16446 1.41785,-8.11725 L 839.6012,457 h -8.34949 -8.34949 l -1.92915,4.25 c -2.53974,5.59517 -2.53064,8.79143 0.0269,9.46025 4.3644,1.14132 1.60585,2.28975 -5.5,2.28975 -4.125,0 -7.5,-0.35134 -7.5,-0.78076 z M 837.43411,451.75 c -0.38536,-1.2375 -1.94737,-5.625 -3.47113,-9.75 l -2.77047,-7.5 -1.2009,3 C 827.41533,443.93583 824,453.06916 824,453.52283 c 0,0.26244 3.18032,0.47717 7.06739,0.47717 6.87008,0 7.04782,-0.0628 6.36672,-2.25 z M 1013,472.23713 c 0,-0.41958 1.0125,-1.20708 2.25,-1.75 2.1607,-0.94795 2.25,-1.48332 2.25,-13.48713 0,-12.00381 -0.089,-12.53918 -2.25,-13.48713 -3.057,-1.34119 -2.8266,-2.24259 0.75,-2.93341 1.65,-0.31871 4.35,-0.84021 6,-1.15892 2.7077,-0.523 3,-0.32816 3,2 0,3.16503 0.047,3.16585 4.5951,0.0795 5.3594,-3.63699 11.5921,-3.46667 15.4818,0.42308 2.9058,2.9058 2.9231,2.99393 2.9231,14.91659 0,11.91978 0.017,12.00613 2.75,14.04524 l 2.75,2.05173 -8.75,0.0317 c -8.1537,0.0295 -11.3758,-1.04839 -6.75,-2.25807 1.8591,-0.48617 2,-1.36401 2,-12.46164 0,-10.29596 -0.2516,-12.16635 -1.8287,-13.59362 -2.4337,-2.20247 -5.9556,-2.08389 -9.9213,0.33405 l -3.25,1.98156 v 10.08044 c 0,10.2846 0.9287,13.94896 3.5352,13.94896 0.8056,0 1.4648,0.45 1.4648,1 0,0.58824 -3.5,1 -8.5,1 -4.675,0 -8.5,-0.34329 -8.5,-0.76287 z m 70,-0.12872 c 0,-0.49038 1.125,-1.17395 2.5,-1.51905 l 2.5,-0.62746 V 457 444.0381 l -2.5,-0.62746 c -3.8744,-0.9724 -2.9781,-2.14238 2.5492,-3.32778 8.4662,-1.81566 7.8666,-2.85471 8.1748,14.16714 0.2666,14.72937 0.3528,15.2837 2.526,16.23713 4.1568,1.82367 2.3054,2.51287 -6.75,2.51287 -4.95,0 -9,-0.40122 -9,-0.89159 z m 22,0.12872 c 0,-0.41958 1.0125,-1.20708 2.25,-1.75 2.1151,-0.92793 2.267,-1.66203 2.5328,-12.2416 C 1110.07,446.81534 1109.2396,443 1106.4648,443 c -3.4238,0 -1.0645,-1.92012 3.5844,-2.91714 6.8321,-1.46522 6.9508,-1.44041 6.9508,1.45319 v 2.53605 l 3.7321,-2.53605 c 2.5761,-1.75046 5.0746,-2.53605 8.0658,-2.53605 9.0161,0 11.2021,3.78264 11.2021,19.38447 0,10.23454 0.056,10.49077 2.75,12.50044 l 2.75,2.05173 -8.75,0.0317 c -8.2542,0.0299 -11.2126,-1.05194 -6.75,-2.46832 1.8509,-0.58744 2,-1.51303 2,-12.4124 0,-10.13998 -0.2543,-12.00775 -1.8287,-13.43261 -2.4337,-2.20247 -5.9556,-2.08389 -9.9213,0.33405 l -3.25,1.98156 v 10.08044 c 0,10.2846 0.9287,13.94896 3.5352,13.94896 0.8056,0 1.4648,0.45 1.4648,1 0,0.58824 -3.5,1 -8.5,1 -4.675,0 -8.5,-0.34329 -8.5,-0.76287 z M 1233,472 c 0,-0.55 0.8896,-1 1.9769,-1 4.0885,0 4.6826,-3.25484 4.2438,-23.25 L 1238.8093,429 h -4.848 c -3.8761,0 -5.16,0.44553 -6.4046,2.22251 -0.8562,1.22237 -1.5567,3.02237 -1.5567,4 0,0.97762 -0.675,1.77749 -1.5,1.77749 -1.1515,0 -1.5,-1.27778 -1.5,-5.5 V 426 h 19 c 10.45,0 19.3375,-0.1125 19.75,-0.25 0.4125,-0.1375 0.885,2.3375 1.0499,5.5 0.3616,6.93344 -1.8013,8.02629 -3.6531,1.84574 -1.1379,-3.79794 -1.3078,-3.91367 -6.2421,-4.25 -2.7898,-0.19016 -5.222,-0.19589 -5.4048,-0.0127 -0.1829,0.18315 -0.1356,9.14856 0.105,19.92314 0.4474,20.02928 0.8972,22.24387 4.5175,22.24387 1.0327,0 1.8776,0.45 1.8776,1 0,0.60317 -4.1667,1 -10.5,1 -6.3333,0 -10.5,-0.39683 -10.5,-1 z m 70,0.44798 c 0,-0.30361 1.3712,-1.03001 3.047,-1.61421 1.7554,-0.61194 5.1333,-3.64055 7.9686,-7.14473 l 4.9216,-6.08254 -2.6337,-3.55325 C 1310.1086,445.69568 1306.7756,442 1305.4331,442 c -2.5251,0 -1.5311,-1.82075 1.3169,-2.41209 2.9942,-0.6217 13.0859,-0.0853 13.9106,0.73936 0.2809,0.28088 -0.4357,1.01718 -1.5924,1.63622 -2.0885,1.11773 -2.0818,1.15638 0.9624,5.58102 1.686,2.45052 3.4176,4.45549 3.8479,4.45549 0.8012,0 7.1215,-8.35451 7.1215,-9.41348 0,-0.32258 -0.9,-0.58652 -2,-0.58652 -1.1,0 -2,-0.4116 -2,-0.91467 0,-1.12236 13.0075,-1.89241 13.6731,-0.80946 0.2623,0.42673 -0.7943,1.2236 -2.3481,1.77081 -1.5537,0.54722 -5.0205,3.49438 -7.7038,6.54924 -4.4702,5.08919 -4.7736,5.75076 -3.6232,7.90037 2.3625,4.41426 11.091,14.50371 12.5474,14.50371 0.8,0 1.4546,0.45 1.4546,1 0,0.58824 -3.5,1 -8.5,1 -5,0 -8.5,-0.41176 -8.5,-1 0,-0.55 0.6484,-1 1.441,-1 2.7957,0 2.4871,-1.80663 -1.1145,-6.52338 l -3.6404,-4.76775 -2.8675,3.39556 c -4.7918,5.67436 -5.2827,6.96145 -2.8934,7.58626 4.3231,1.13052 1.809,2.30931 -4.9252,2.30931 -3.85,0 -7,-0.24841 -7,-0.55202 z m 129,-0.11913 c 0,-0.47003 1.0125,-1.2988 2.25,-1.84172 2.2131,-0.97094 2.2544,-1.31889 2.5206,-21.2129 l 0.2707,-20.22577 -2.5207,-0.63264 c -5.8693,-1.47312 -1.6506,-2.41438 10.7294,-2.39386 16.5519,0.0274 20.9365,1.53094 22.8226,7.82586 1.0447,3.48698 0.9563,4.41578 -0.6868,7.21413 -1.0372,1.76652 -3.3363,3.98725 -5.1091,4.93495 -3.3447,1.78792 -3.3487,3.0031 -0.01,3.0031 1.0633,0 3.4633,1.53 5.3333,3.4 3.9016,3.90165 4.5458,8.85179 1.7645,13.56017 -3.2754,5.54479 -6.4367,6.50675 -22.6145,6.88155 -8.1125,0.18794 -14.75,-0.0428 -14.75,-0.51287 z m 27.0769,-5.25193 c 2.3876,-2.3876 2.9231,-3.76984 2.9231,-7.54545 C 1462,452.77472 1458.9566,450 1451.5455,450 H 1446 v 9.33333 c 0,5.13334 0.3,9.63334 0.6667,10 0.3666,0.36667 2.6512,0.66667 5.0769,0.66667 3.5412,0 4.9863,-0.57603 7.3333,-2.92308 z m -3.7612,-21.24026 c 3.4394,-1.8318 4.6182,-4.00753 4.6525,-8.58666 0.04,-5.29411 -2.2243,-7.77958 -7.9706,-8.7504 -6.1331,-1.03619 -6.8856,0.19662 -6.2567,10.2504 l 0.5161,8.25 h 3.4372 c 1.8905,0 4.4202,-0.5235 5.6215,-1.16334 z M 1557,472.23713 c 0,-0.41958 1.0125,-1.20708 2.25,-1.75 2.2046,-0.9672 2.2557,-1.37076 2.534,-19.98713 0.1562,-10.45 0.049,-19.95873 -0.2391,-21.13051 -0.2877,-1.17178 -1.4279,-2.36715 -2.534,-2.65638 -2.7294,-0.71376 -2.5542,-2.71045 0.2391,-2.72412 1.2375,-0.006 3.9375,-0.28993 6,-0.63084 l 3.75,-0.61983 v 16.13084 c 0,8.87196 0.3529,16.13084 0.7842,16.13084 1.2686,0 11.2158,-10.44884 11.2158,-11.78145 0,-0.6702 -0.675,-1.21855 -1.5,-1.21855 -0.825,0 -1.5,-0.675 -1.5,-1.5 0,-1.19048 1.4444,-1.5 7,-1.5 5.5556,0 7,0.30952 7,1.5 0,0.825 -0.8271,1.5 -1.8381,1.5 -1.011,0 -4.4864,2.40671 -7.7232,5.34824 -5.7519,5.22723 -5.8427,5.3906 -4.0122,7.22111 1.0301,1.03009 4.0921,4.92398 6.8044,8.65309 2.9611,4.07123 5.8979,7.02277 7.3503,7.3873 4.7022,1.18016 2.3287,2.39026 -4.6882,2.39026 -5.7013,0 -7.0001,-0.27859 -6.5665,-1.40851 0.2973,-0.77469 -1.2622,-3.81219 -3.4656,-6.75 -2.2034,-2.93782 -4.3391,-5.92225 -4.746,-6.63207 -0.4165,-0.72652 -1.4774,-1.00756 -2.4274,-0.64301 -1.2598,0.48344 -1.6875,1.867 -1.6875,5.45879 0,6.09796 0.7312,7.9748 3.107,7.9748 1.0411,0 1.893,0.45 1.893,1 0,0.58824 -3.5,1 -8.5,1 -4.675,0 -8.5,-0.34329 -8.5,-0.76287 z m 40,-0.16758 c 0,-0.51175 1.0125,-1.07425 2.25,-1.25 2.243,-0.31855 2.2508,-0.38611 2.5199,-21.58672 l 0.27,-21.26717 -2.6828,-1.01999 c -3.6881,-1.40223 -1.9916,-2.58239 4.8929,-3.40365 l 5.75,-0.68593 v 16.07195 c 0,8.83958 0.3529,16.07196 0.7842,16.07196 1.2686,0 11.2158,-10.44884 11.2158,-11.78145 0,-0.6702 -0.675,-1.21855 -1.5,-1.21855 -0.825,0 -1.5,-0.38732 -1.5,-0.86071 0,-1.25525 9.6771,-2.19989 12.2805,-1.19877 2.1543,0.82842 2.1313,0.88761 -0.7805,2.0134 -2.8962,1.11974 -12.5,9.71979 -12.5,11.19353 0,0.95806 13.2031,16.85255 13.9989,16.85255 0.3404,0 1.4923,0.66069 2.56,1.4682 1.7609,1.33191 1.2155,1.47115 -5.8763,1.5 -6.9927,0.0284 -7.7602,-0.1528 -7.2753,-1.7182 0.3427,-1.10672 -1.1614,-4.0439 -4.0918,-7.99036 -5.5504,-7.4748 -7.3155,-7.1234 -7.3155,1.45642 0,4.63018 0.3074,5.55157 2,5.99419 4.5635,1.19339 1.4513,2.28975 -6.5,2.28975 -4.675,0 -8.5,-0.4187 -8.5,-0.93045 z m 153,0.16758 c 0,-0.41958 1.0125,-1.20708 2.25,-1.75 2.1607,-0.94795 2.25,-1.48332 2.25,-13.48713 0,-12.00381 -0.089,-12.53918 -2.25,-13.48713 -4.0897,-1.79425 -2.8031,-2.73644 5.5,-4.02772 l 4.25,-0.66095 v 14.15364 c 0,14.14204 0.7611,18.02216 3.5352,18.02216 0.8056,0 1.4648,0.45 1.4648,1 0,0.58824 -3.5,1 -8.5,1 -4.675,0 -8.5,-0.34329 -8.5,-0.76287 z m 21,0 c 0,-0.41958 1.0125,-1.20708 2.25,-1.75 2.0983,-0.92058 2.2697,-1.69505 2.5416,-11.48713 0.3407,-12.27107 -0.087,-14.64143 -2.7939,-15.50074 -3.1836,-1.01042 -2.341,-2.17539 2.4451,-3.38055 6.2507,-1.57392 7.5572,-1.42156 7.5572,0.88129 0,2.47172 0.1777,2.47188 4.2258,0.004 4.4336,-2.70313 11.6591,-2.69126 14.5735,0.0239 2.827,2.63372 3.1591,4.31364 3.4541,17.47232 0.2316,10.33256 0.3831,11.0599 2.4966,11.98713 4.108,1.80228 2.3407,2.51287 -6.25,2.51287 -5,0 -8.5,-0.41176 -8.5,-1 0,-0.55 0.6592,-1 1.4648,-1 2.9734,0 3.7816,-3.89013 3.0471,-14.66628 -0.4792,-7.03105 -1.184,-10.86298 -2.1814,-11.86034 -2.1001,-2.10012 -6.6191,-1.82085 -9.6956,0.5992 -2.5325,1.99201 -2.6349,2.46104 -2.6349,12.06574 0,10.20273 0.9332,13.86168 3.5352,13.86168 0.8056,0 1.4648,0.45 1.4648,1 0,0.58824 -3.5,1 -8.5,1 -4.675,0 -8.5,-0.34329 -8.5,-0.76287 z M 360.45425,461.92597 c -0.36508,-0.59071 0.2163,-2.05321 1.29197,-3.25 3.23688,-3.60134 3.44857,-5.50224 0.8056,-7.23397 -3.26081,-2.13657 -3.88357,-4.28673 -2.05145,-7.0829 1.82224,-2.7811 6.5203,-3.19557 8.9282,-0.78767 3.67774,3.67774 0.81337,14.07435 -4.911,17.8251 -2.89475,1.89671 -3.19419,1.93573 -4.06332,0.52944 z M 196.09258,451.7081 c -12.50728,-3.99258 -17.75849,-22.20372 -10.49681,-36.4028 5.18326,-10.13506 16.85064,-14.6801 28.97239,-11.28622 5.46342,1.52967 6.75746,3.62674 5.87386,9.519 C 219.92177,417.00735 219.35323,418 217.88646,418 216.57861,418 216,417.28667 216,415.67431 216,411.8099 212.06378,409 206.65037,409 c -9.41567,0 -13.00505,5.00822 -12.90055,18 0.079,9.81999 1.79259,14.82592 6.13315,17.91667 4.96027,3.53202 12.98004,2.20714 17.61031,-2.90924 2.67996,-2.96132 4.50672,-2.53004 4.50672,1.064 0,3.68386 -1.51657,5.35359 -7.20919,7.93723 -4.76267,2.16157 -13.13665,2.47482 -18.69823,0.69944 z m 32.32468,0.37523 C 228.18777,451.85417 228,450.83042 228,449.80833 c 0,-1.26481 0.95815,-2.04996 3,-2.45833 l 3,-0.6 V 428 409.25 l -3,-0.6 c -2.38284,-0.47657 -3,-1.11944 -3,-3.125 0,-2.50913 0.055,-2.52488 8.75,-2.50519 23.0666,0.0522 31.26162,4.29631 31.24341,16.18053 -0.0131,8.53003 -6.23981,13.78249 -17.28756,14.58264 l -6.79415,0.49207 0.29415,6.07888 c 0.286,5.91047 0.38419,6.10459 3.54415,7.00713 2.41664,0.69024 3.25,1.49965 3.25,3.15662 0,2.17783 -0.25129,2.22557 -11.08274,2.10534 -6.09551,-0.0677 -11.27051,-0.31052 -11.5,-0.53969 z m 25.72312,-24.40307 C 256.49847,426.20761 258,422.58793 258,418.37602 258,413.21953 253.53428,409 248.07692,409 H 244 v 10.5879 10.5879 l 4.21154,-0.71154 c 2.31635,-0.39135 4.98433,-1.19415 5.92884,-1.784 z M 266,450.51905 c 0,-1.78012 0.6734,-2.64996 2.38387,-3.07926 2.93072,-0.73556 5.29622,-6.24292 15.86627,-36.93979 2.41029,-6.99983 2.41045,-7.00001 6.43925,-7.30062 l 4.0289,-0.30061 2.12702,5.80061 c 3.11154,8.48553 10.03841,28.06116 11.87195,33.55062 1.24591,3.73015 2.05492,4.75 3.76798,4.75 2.8419,0 3.31989,0.56858 2.79339,3.3228 -0.41394,2.16535 -0.91656,2.28749 -10.35684,2.5168 -9.90856,0.2407 -9.92179,0.23777 -9.92179,-2.19088 0,-1.76004 0.69068,-2.60525 2.5,-3.05936 2.92476,-0.73407 2.99518,-1.15999 0.98658,-5.96724 L 296.97316,438 h -8.32607 c -7.95173,0 -8.37824,0.11451 -9.48657,2.54705 -1.78474,3.91706 -1.39652,6.02439 1.33948,7.271 1.46651,0.66818 2.5,1.97473 2.5,3.16051 0,1.87004 -0.63662,2.02144 -8.5,2.02144 -8.38259,0 -8.5,-0.0343 -8.5,-2.48095 z M 294.98499,432.25 c -0.008,-0.4125 -1.13319,-4.35 -2.49986,-8.75 -1.36667,-4.4 -2.48492,-8.8625 -2.48499,-9.91667 -8e-5,-1.05416 -0.30356,-1.61324 -0.6744,-1.2424 -0.50766,0.50765 -7.13128,19.03645 -7.29578,20.40907 -0.0165,0.1375 2.89504,0.25 6.47004,0.25 3.575,0 6.49325,-0.3375 6.48499,-0.75 z M 323.75,451.79731 320,450.80132 v -6.90066 C 320,437.68879 320.19773,437 321.98095,437 c 1.33969,0 2.18748,0.8902 2.61897,2.75 1.09576,4.72298 3.21186,7.12406 6.88594,7.81333 6.6801,1.25319 11.51414,-1.46724 11.51414,-6.47977 0,-3.55576 -1.6826,-5.00214 -11.70626,-10.06283 -10.02113,-5.0594 -12.81604,-8.69455 -12.03213,-15.64936 1.11276,-9.87242 12.38522,-14.95432 24.87237,-11.21308 3.86097,1.15677 3.86602,1.16526 3.86602,6.5 0,4.42892 -0.29904,5.33801 -1.75,5.32007 -0.9833,-0.0122 -2.40717,-1.43603 -3.25,-3.25 -1.38134,-2.97298 -1.92173,-3.25249 -6.83118,-3.53343 -6.1489,-0.35187 -8.16882,0.8489 -8.16882,4.85609 0,3.64485 1.76277,5.30078 10.12646,9.51266 8.07083,4.06441 10.51508,5.95598 12.4523,9.63666 3.37244,6.40759 0.24465,14.20662 -7.14448,17.8145 -4.46271,2.17899 -13.12913,2.52349 -19.68428,0.78247 z M 394,450.59783 c 0,-1.73997 0.78294,-2.67511 2.84012,-3.39225 2.16019,-0.75305 3.3427,-2.27275 4.93937,-6.34783 2.73397,-6.97769 11.09016,-30.4154 12.35805,-34.66222 0.93166,-3.12063 1.21503,-3.28752 5.09364,-3 l 4.10709,0.30447 3.67487,10.5 c 2.02117,5.775 3.94142,11.175 4.26721,12 0.3258,0.825 2.0835,5.72361 3.906,10.8858 2.81566,7.97525 3.72694,9.53038 6.06365,10.34783 1.95047,0.68232 2.75,1.64755 2.75,3.31993 0,2.32713 -0.13052,2.35651 -10,2.25114 -9.79824,-0.10461 -10,-0.15416 -10,-2.45573 0,-1.37855 0.59531,-2.34897 1.44098,-2.34897 2.32419,0 2.68844,-1.61683 1.33861,-5.94183 L 425.51304,438 h -8.59646 -8.59646 l -1.34536,4.07646 c -1.39531,4.22786 -0.62557,5.86657 2.77524,5.90823 0.6875,0.008 1.25,1.14031 1.25,2.51531 0,2.47059 -0.1,2.5 -8.5,2.5 -8.30769,0 -8.5,-0.0543 -8.5,-2.40217 z M 422.31356,428.25 c -0.81989,-2.6125 -2.26143,-7.38655 -3.20343,-10.609 l -1.71272,-5.859 -3.60624,10.609 -3.60623,10.609 h 6.80966 6.80966 z m 23.18928,22.75895 C 444.70142,448.4839 445.60682,447 447.94889,447 c 1.18921,0 2.57038,-1.57327 3.94098,-4.4891 1.16057,-2.46901 2.11013,-4.79889 2.11013,-5.17751 0,-0.69079 5.40713,-16.08534 6.96621,-19.83339 0.45757,-1.1 1.32736,-3.4625 1.93287,-5.25 3.17272,-9.36612 3.08206,-9.25 7.22224,-9.25 2.13327,0 3.88322,0.1125 3.88876,0.25 0.006,0.1375 1.61612,4.75 3.57905,10.25 1.96293,5.5 5.23048,14.725 7.26123,20.5 4.36874,12.42377 4.68827,13 7.20866,13 1.48998,0 1.94098,0.69707 1.94098,3 v 3 h -10 c -9.97952,0 -10,-0.005 -10,-2.48095 0,-1.81032 0.67371,-2.65004 2.49233,-3.10648 2.10229,-0.52764 2.39363,-1.03923 1.86166,-3.26905 -1.45085,-6.0815 -1.75299,-6.24366 -11.05178,-5.93164 l -8.58662,0.28812 -1.26515,4.29353 -1.26514,4.29353 2.90735,0.58147 c 2.23048,0.4461 2.90735,1.1344 2.90735,2.95647 0,2.3004 -0.24916,2.375 -7.93261,2.375 -7.04247,0 -8.00353,-0.22342 -8.56455,-1.99105 z M 473.98545,431.75 c -0.008,-0.6875 -0.73856,-3.275 -1.62345,-5.75 -0.88489,-2.475 -2.13326,-6.75 -2.77415,-9.5 l -1.16526,-5 -2.76957,8 c -1.52327,4.4 -3.16194,9.2375 -3.6415,10.75 l -0.87191,2.75 h 6.4302 c 4.48525,0 6.42579,-0.37809 6.41564,-1.25 z m 35.26159,19.91788 c -7.61299,-2.7615 -12.42317,-10.43687 -13.05694,-20.83431 -0.7351,-12.05981 4.89149,-22.33386 14.40897,-26.31052 4.77043,-1.99321 13.74158,-1.94027 19.1175,0.11281 L 534,406.27172 v 5.93369 c 0,5.58147 -0.13356,5.91472 -2.25,5.61414 -1.59246,-0.22616 -2.34032,-1.1009 -2.55906,-2.99324 -0.45413,-3.92872 -4.25308,-5.98815 -10.38012,-5.6271 -4.55588,0.26846 -5.43803,0.71373 -8.20766,4.14285 -2.82943,3.50315 -3.13455,4.59067 -3.459,12.32859 -0.5897,14.06379 3.78649,21.32187 12.85584,21.32187 3.55518,0 9.54564,-2.98888 11.58771,-5.78158 1.59636,-2.18316 4.41229,-0.77479 4.41229,2.20678 0,2.81942 -4.45845,6.62254 -9.89922,8.44418 -4.29665,1.43857 -12.61703,1.34279 -16.85374,-0.19402 z m 578.71706,-21.73494 c -0.8605,-1.60793 -0.7522,-2.60745 0.4879,-4.5 1.7616,-2.6885 2.7446,-2.93327 5.6137,-1.39776 2.1622,1.15713 2.5714,4.9277 0.7343,6.76482 -1.8864,1.88637 -5.6154,1.41338 -6.8359,-0.86706 z M 1755.2,430.8 c -2.6634,-2.66343 -0.7252,-7.8 2.9433,-7.8 2.2536,0 4.8808,3.7541 4.1042,5.8648 -1.1596,3.15174 -4.8246,4.15812 -7.0475,1.9352 z M 1097.1899,384.64497 C 1091.5855,378.9497 1087,373.87916 1087,373.3771 c 0,-0.50206 4.7168,-5.61355 10.4817,-11.35887 l 10.4817,-10.44603 3.7683,3.44798 c 10.9694,10.037 17.2683,16.59213 17.2683,17.97087 0,1.38362 -19.7521,22.00895 -21.0772,22.00895 -0.2986,0 -5.1285,-4.65976 -10.7329,-10.35503 z m 44,0 C 1135.5855,378.9497 1131,373.87916 1131,373.3771 c 0,-0.50206 4.7168,-5.61355 10.4817,-11.35887 l 10.4817,-10.44603 3.7683,3.44798 c 10.9694,10.037 17.2683,16.59213 17.2683,17.97087 0,1.38362 -19.7521,22.00895 -21.0772,22.00895 -0.2986,0 -5.1285,-4.65976 -10.7329,-10.35503 z m 44,0 C 1179.5855,378.9497 1175,373.87916 1175,373.3771 c 0,-0.50206 4.7168,-5.61355 10.4817,-11.35887 l 10.4817,-10.44603 3.7683,3.44798 c 10.9694,10.037 17.2683,16.59213 17.2683,17.97087 0,1.38362 -19.7521,22.00895 -21.0772,22.00895 -0.2986,0 -5.1285,-4.65976 -10.7329,-10.35503 z m 44,-1 C 1223.5855,377.9497 1219,372.87916 1219,372.3771 c 0,-0.50206 4.7168,-5.61355 10.4817,-11.35887 l 10.4817,-10.44603 3.7683,3.44798 c 10.9694,10.037 17.2683,16.59213 17.2683,17.97087 0,1.38362 -19.7521,22.00895 -21.0772,22.00895 -0.2986,0 -5.1285,-4.65976 -10.7329,-10.35503 z m 45,0 C 1268.5855,377.9497 1264,372.87916 1264,372.3771 c 0,-0.50206 4.7168,-5.61355 10.4817,-11.35887 l 10.4817,-10.44603 3.7683,3.44798 c 10.9694,10.037 17.2683,16.59213 17.2683,17.97087 0,1.38362 -19.7521,22.00895 -21.0772,22.00895 -0.2986,0 -5.1285,-4.65976 -10.7329,-10.35503 z M 180,373 v -6 h 449.0141 449.0141 l 2.9182,3.25 2.9182,3.25 -2.6194,2.75 -2.6194,2.75 -449.31289,0 L 180,379 Z m 1127.2366,0 c 0,-4.13432 0.2299,-5.46741 0.6317,-3.66284 l 0.6317,2.83716 2.4243,-2.58716 L 1313.3486,367 H 1667.6743 2022 v 6 6 h -354.3257 -354.3257 l -2.4243,-2.58716 -2.4243,-2.58716 -0.6317,2.83716 c -0.4018,1.80457 -0.6317,0.47148 -0.6317,-3.66284 z M 330.73447,340.91195 c -22.49223,-5.29911 -32.71829,-31.54061 -19.6774,-50.49491 3.43697,-4.99545 10.97018,-11.81882 15.03459,-13.61791 1.59959,-0.70804 2.90641,-1.515 2.90406,-1.79324 -0.002,-0.27824 -1.371,-2.53089 -3.04143,-5.00589 -6.79607,-10.06941 -8.35304,-14.71563 -8.3776,-25 -0.0186,-7.78338 0.36036,-10.22279 2.09709,-13.5 4.81058,-9.07758 13.04536,-14.77228 24.10341,-16.66852 14.21354,-2.43736 26.09173,1.9696 31.86602,11.82267 3.62931,6.19295 3.78167,16.46466 0.35134,23.68554 -2.85503,6.00989 -9.63034,13.03551 -17.49455,18.1409 -3.3,2.14234 -6.21197,4.06009 -6.47104,4.26166 -0.25907,0.20157 -0.0279,0.67953 0.51375,1.06212 0.54163,0.3826 2.99741,3.17063 5.45729,6.19563 2.45988,3.025 4.70369,5.725 4.98625,6 0.28256,0.275 2.14018,2.525 4.12804,5 5.5244,6.87821 13.70313,15.52338 14.17429,14.98267 0.83839,-0.96217 7.64814,-15.61166 9.65469,-20.76969 3.71967,-9.56176 2.21287,-16.33175 -3.90739,-17.5558 C 384.3437,267.11874 384,266.65092 384,263.525 V 260 h 17 17 v 3.42054 c 0,2.95846 -0.39035,3.50629 -2.88955,4.0552 -4.83052,1.06096 -8.7254,6.23777 -13.56092,18.02426 -3.675,8.95772 -5.215,12.37931 -9.21357,20.47072 l -4.18602,8.47071 6.54959,7.31802 C 401.06114,328.86742 405.2675,332 408.45034,332 409.62031,332 410,333.10258 410,336.5 v 4.5 h -12.93191 -12.9319 l -2.28518,-3.25 c -1.25685,-1.7875 -2.85257,-3.83471 -3.54603,-4.54936 -0.69347,-0.71465 -1.66989,-2.03028 -2.16982,-2.92361 -0.79658,-1.4234 -1.38662,-1.24594 -4.77206,1.43523 -11.12918,8.81401 -27.00618,12.4091 -40.62863,9.19969 z m 28.18559,-14.87117 c 2.39868,-1.22371 5.17596,-2.98397 6.17174,-3.91168 1.94112,-1.80843 1.55802,-2.37666 -11.96667,-17.74964 -1.99382,-2.2663 -6.97154,-8.22842 -11.06159,-13.24915 l -7.43646,-9.1286 -2.41977,2.24914 c -1.33088,1.23703 -3.83447,4.27415 -5.56354,6.74915 -2.93069,4.195 -3.14377,5.08114 -3.14377,13.07401 0,7.78674 0.27546,9.01748 3,13.40374 3.40855,5.48745 6.39325,7.98541 12.05782,10.09147 5.38414,2.0018 14.8326,1.29257 20.36224,-1.52844 z m -4.12425,-67.40318 c 11.39274,-10.45842 12.34629,-26.31244 1.96333,-32.643 -4.14714,-2.52854 -8.06203,-2.52263 -13.19342,0.0199 -6.38438,3.16341 -8.08088,6.24281 -7.98033,14.48547 0.0727,5.96249 0.57706,7.8893 3.4026,13 5.78095,10.4563 6.84815,11.65806 9.22374,10.38668 1.14226,-0.61132 4.1051,-2.97341 6.58408,-5.24908 z M 186,337.04531 c 0,-3.78162 0.16411,-3.98461 3.75,-4.63853 4.63169,-0.84464 8.84504,-3.70982 10.64021,-7.23562 0.74801,-1.46914 3.04084,-7.39616 5.09518,-13.17116 2.05433,-5.775 5.89422,-16.575 8.5331,-24 2.63887,-7.425 7.04923,-19.8 9.80078,-27.5 2.75156,-7.7 6.64501,-18.725 8.65211,-24.5 2.0071,-5.775 4.04238,-11.4 4.52285,-12.5 0.48046,-1.1 1.44371,-3.6875 2.14056,-5.75 l 1.26699,-3.75 h 7.69212 c 6.38762,0 7.81301,0.29678 8.40493,1.75 0.93785,2.30252 12.16241,34.20061 14.51539,41.25 1.00969,3.025 4.60235,13.375 7.98369,23 3.38133,9.625 7.31216,20.85001 8.73518,24.94447 1.42302,4.09446 3.18744,8.59446 3.92095,10 0.7335,1.40554 1.33641,2.91772 1.3398,3.36039 0.003,0.44268 0.9005,2.76807 1.99358,5.16753 2.23616,4.90866 6.10748,8.39659 10.23604,9.2223 C 307.68563,333.18713 308,333.68875 308,337.125 V 341 h -25 -25 v -3.95469 c 0,-3.79345 0.15289,-3.97985 3.75,-4.57196 9.68927,-1.59493 10.37185,-4.56188 4.25,-18.47335 -2.2,-4.99934 -4,-9.74453 -4,-10.54486 0,-1.22696 -3.2538,-1.45421 -20.75,-1.44924 l -20.75,0.006 -3.75,10.85982 c -2.0625,5.97291 -3.75,11.80272 -3.75,12.95514 0,3.11186 3.58573,5.88402 8.57948,6.63288 4.36694,0.65486 4.42052,0.71063 4.42052,4.60162 V 341 H 206 186 Z M 257.52586,291.25 c -3.67681,-9.3507 -15.50526,-45.14235 -15.59354,-47.18443 -0.0945,-2.18579 -1.05084,0.125 -5.97385,14.43443 -2.27066,6.6 -5.89022,16.72747 -8.04347,22.50549 -2.15325,5.77802 -3.915,10.84052 -3.915,11.25 0,0.40948 7.69814,0.74451 17.10699,0.74451 15.88784,0 17.05795,-0.12472 16.41887,-1.75 z M 414,337.10699 C 414,333.16332 415.11496,332 418.8947,332 c 4.19788,0 8.18751,-7.05128 14.14503,-25 1.00405,-3.025 2.80701,-8.2 4.00657,-11.5 4.73301,-13.02055 21.05727,-58.9383 22.93045,-64.5 0.4631,-1.375 2.00778,-5.64805 3.43262,-9.49567 1.42485,-3.84761 2.59063,-7.11011 2.59063,-7.25 0,-0.13988 3.55186,-0.25433 7.89301,-0.25433 6.57894,0 8.01168,0.29135 8.60582,1.75 0.93785,2.30252 12.16241,34.20061 14.51539,41.25 1.00969,3.025 4.61441,13.375 8.01048,23 3.39607,9.625 6.5351,18.625 6.97562,20 4.38392,13.68353 9.39912,25.80749 11.64543,28.15213 1.46817,1.53244 4.51099,3.3974 6.76182,4.14436 3.69478,1.22615 4.12259,1.71497 4.4028,5.03081 L 535.12073,341 H 509.50287 483.885 l 0.3075,-4.25 c 0.30227,-4.17772 0.37553,-4.25551 4.3075,-4.57384 4.30763,-0.34875 7.5,-2.51338 7.5,-5.08548 0,-0.87964 -1.17439,-4.7474 -2.60975,-8.59501 -1.43536,-3.84762 -3.34786,-9.13657 -4.25,-11.75322 l -1.64025,-4.75754 -20.88332,0.25754 -20.88331,0.25755 -4.05889,12.3863 -4.05889,12.3863 2.63444,2.26604 c 1.44893,1.24632 4.46043,2.57454 6.6922,2.9516 C 450.87761,333.15512 451,333.2938 451,337.0879 V 341 H 432.5 414 Z M 483.52586,291.25 c -1.39169,-3.53928 -8.78192,-25.07465 -12.35082,-35.99069 -2.02127,-6.18238 -3.96008,-11.24488 -4.30846,-11.25 -0.34839,-0.005 -0.86461,1.00319 -1.14717,2.24069 -0.28256,1.2375 -1.51311,4.95 -2.73455,8.25 C 458.93038,265.45413 450,291.37987 450,292.1963 c 0,0.44203 7.69814,0.8037 17.10699,0.8037 15.88784,0 17.05795,-0.12472 16.41887,-1.75 z m 1299.67204,39.54788 c -0.8329,-0.83287 0.033,-2.20301 3.3387,-5.28115 5.5438,-5.16265 5.9025,-8.32795 1.1918,-10.51673 -2.5532,-1.1863 -3.2954,-2.19925 -3.5487,-4.84354 -0.878,-9.16414 11.9673,-9.87081 15.1675,-0.83442 0.3549,1.00212 0.1445,3.81089 -0.4676,6.2417 -1.8437,7.32208 -12.8762,18.03967 -15.6817,15.23414 z M 762.32796,315.06183 c -7.03806,-3.1955 -7.74053,-5.17923 -8.32018,-23.49558 L 753.5,275.52078 l -2.75,-1.31496 c -4.36724,-2.08826 -3.40147,-3.84899 2.5,-4.55784 2.8875,-0.34683 6.9375,-0.63451 9,-0.63929 L 766,269 v 15.85078 c 0,16.45634 0.87527,21.47692 4.03944,23.17033 3.04761,1.63103 7.47574,1.10629 11.06268,-1.31094 L 784.5,304.42033 v -14.85118 c 0,-13.81485 -0.13956,-14.92856 -2,-15.96016 C 776.71234,270.39977 778.5525,269 788.55902,269 H 797 v 19.42857 C 797,309.12429 797.42144,311 802.07143,311 c 1.21316,0 1.92857,0.68962 1.92857,1.85904 0,1.62882 -1.08355,1.92665 -8.74937,2.4049 -4.81216,0.30022 -9.08716,0.33709 -9.5,0.0819 C 785.33778,315.09073 785,313.50511 785,311.82229 v -3.05967 l -3.6598,2.79146 c -3.89929,2.97414 -9.55537,5.34405 -12.8402,5.38007 -1.1,0.0121 -3.87742,-0.83048 -6.17204,-1.87232 z M 916.5,316.10215 c -4.90132,-1.25403 -9.00573,-3.77518 -12.35369,-7.58829 -4.89424,-5.57424 -6.38798,-10.02072 -5.88355,-17.51386 1.02391,-15.2099 11.12048,-24.04109 25.96208,-22.70831 10.41297,0.93509 15.64187,6.44193 16.57712,17.45831 l 0.4457,5.25 H 926.12383 911 l 0.004,3.75 c 0.004,3.78895 2.8876,9.66483 5.87284,11.96609 5.0685,3.9072 13.9746,3.54861 19.48322,-0.78447 4.79181,-3.76923 6.42936,-0.0195 1.8902,4.32824 -4.98705,4.77677 -15.19632,7.51909 -21.75,5.84229 z M 928.99442,283.75 c -0.0103,-4.16017 -2.06639,-9.71815 -3.97243,-10.73823 -5.08067,-2.71909 -10.54402,-0.0609 -12.95538,6.30333 C 909.66532,285.6528 910.07737,286 920,286 c 8.66832,0 8.99979,-0.0829 8.99442,-2.25 z m 58.65921,32.21205 c -5.46296,-0.92864 -11.77655,-4.69383 -14.2816,-8.51701 -0.92209,-1.4073 -1.88419,-4.71981 -2.13799,-7.36114 -0.67958,-7.07255 1.74005,-11.35275 9.27961,-16.41513 l 6.20866,-4.16877 -2.55227,-4 c -3.4327,-5.37984 -4.0471,-13.63083 -1.37571,-18.47508 5.22461,-9.47425 24.61567,-11.11948 31.43347,-2.66696 2.3861,2.95826 2.2848,10.28906 -0.1984,14.3618 -1.7972,2.94752 -8.4895,8.58773 -11.3442,9.56076 -1.1886,0.40512 13.7806,17.71948 15.3193,17.71948 1.2626,0 5.9955,-10.0966 5.9955,-12.78996 0,-1.55628 -0.7016,-2.58076 -2,-2.92029 -1.1,-0.28766 -2,-1.14553 -2,-1.90638 0,-1.06933 1.9296,-1.38337 8.5,-1.38337 6.4362,0 8.5,0.32523 8.5,1.33948 0,0.73672 -1.1109,1.84564 -2.4686,2.46428 -1.5813,0.72046 -3.7622,3.74211 -6.0671,8.40584 -1.9791,4.00458 -4.3557,8.11962 -5.2813,9.14454 -1.6006,1.77229 -1.4435,2.08049 3.2103,6.29685 2.9661,2.68726 6.6092,4.89229 9.25,5.59859 3.0887,0.82608 4.3567,1.68698 4.3567,2.95782 0,1.58843 -1.008,1.7926 -8.85,1.7926 -8.2705,0 -9.1244,-0.19886 -13.043,-3.03745 l -4.1931,-3.03745 -2.8989,2.06424 c -6.5039,4.63115 -14.88091,6.41429 -23.36137,4.97271 z m 18.87847,-8.41102 c 1.9074,-0.79694 3.4463,-1.80944 3.42,-2.25 -0.026,-0.44057 -4.5121,-5.52603 -9.96833,-11.30103 l -9.92035,-10.5 -3.14083,3.12836 c -5.72047,5.69773 -4.93874,15.06738 1.69229,20.28334 3.22828,2.53937 12.57182,2.87277 17.91722,0.63933 z m -4.5502,-34.53813 c 6.7486,-4.80546 7.2636,-16.28324 0.8787,-19.58501 -7.31153,-3.78092 -13.39419,4.57864 -9.65936,13.27506 1.41476,3.29421 4.70845,8.29705 5.46248,8.29705 0.29015,0 1.78328,-0.8942 3.31818,-1.9871 z m 144.2772,42.50157 c -3.4324,-0.76182 -6.6949,-1.66579 -7.25,-2.00882 -0.555,-0.34302 -1.0091,-3.07213 -1.0091,-6.06467 0,-5.06304 0.1652,-5.44098 2.3787,-5.44098 1.7061,0 2.734,0.85788 3.6353,3.03389 1.8912,4.5657 5.551,6.96611 10.6209,6.96611 5.2028,0 8.3651,-2.58763 8.3651,-6.84501 0,-3.75016 -2.0506,-5.446 -10.9785,-9.07925 -9.4405,-3.84181 -13.0899,-7.36295 -13.6854,-13.2041 -1.1575,-11.35339 12.0975,-17.8129 28.2211,-13.75293 l 4.4428,1.11872 v 5.44771 c 0,5.32237 -0.062,5.44043 -2.6839,5.13128 -2.0192,-0.23804 -2.8812,-1.05924 -3.4801,-3.31526 -1.064,-4.00798 -3.3592,-5.50116 -8.4557,-5.50116 -4.9897,0 -7.3803,1.94315 -7.3803,5.99885 0,3.32519 3.2323,6.28309 8.8125,8.06444 7.3456,2.34492 13.0307,6.0865 14.7486,9.70661 3.204,6.75195 -0.058,14.82004 -7.5611,18.70213 -4.0516,2.09626 -12.0005,2.53841 -18.7409,1.04244 z m 45.2409,0.45918 c -8.8963,-1.79532 -9.5,-2.33226 -9.5,-8.4489 0,-3.03861 0.1882,-5.52475 0.4182,-5.52475 0.23,0 1.1018,-0.26233 1.9374,-0.58295 1.0553,-0.40495 2.1529,0.65929 3.5946,3.48537 2.7464,5.38334 5.8282,7.29845 11.1181,6.90907 5.4906,-0.40415 8.8504,-4.29707 7.3618,-8.52985 -0.7551,-2.14697 -2.7281,-3.50236 -9.3352,-6.41271 -10.1136,-4.45493 -14.0606,-8.06438 -14.7214,-13.46231 -1.42,-11.6004 11.9463,-18.37653 28.1837,-14.28791 l 4.4428,1.11872 v 5.38128 c 0,5.02744 -0.1593,5.38129 -2.4224,5.38129 -1.8829,0 -2.6804,-0.78135 -3.5801,-3.50768 -1.3748,-4.16559 -3.4949,-5.49232 -8.7768,-5.49232 -4.504,0 -7.2207,2.32281 -7.2207,6.17375 0,3.40615 2.2302,5.19036 10.8958,8.71685 8.4881,3.45426 11.7424,6.13936 13.0115,10.7359 2.2667,8.20942 -3.3664,16.23393 -12.8193,18.26121 -5.7719,1.23786 -6.8437,1.24517 -12.588,0.0859 z m 48.696,-0.87089 c -10.2434,-3.53804 -15.1521,-10.86035 -15.1521,-22.60276 0,-10.43084 4.232,-18.00573 12.4273,-22.24369 3.9809,-2.05857 14.9472,-2.77162 20.3103,-1.32062 5.6526,1.52931 12.6505,8.25735 14.1085,13.56431 4.2702,15.544 -2.6591,29.65792 -16.2979,33.19575 -6.5755,1.70567 -9.0126,1.6118 -15.3961,-0.59299 z m 15.1109,-4.88936 c 4.3893,-4.85014 6.1302,-18.27907 3.7223,-28.7134 -1.1606,-5.02943 -5.9042,-9.5 -10.0802,-9.5 -7.3759,0 -10.949,6.32153 -10.949,19.37101 0,9.53402 1.1966,13.96952 4.8232,17.87899 3.1198,3.3632 9.8424,3.882 12.4837,0.9634 z m 40.8891,4.92864 c -10.0748,-3.55442 -15.6207,-11.41382 -15.6241,-22.14204 -0,-3.575 0.5705,-8.15977 1.2702,-10.18837 1.9018,-5.51332 8.0391,-11.27931 14.1749,-13.31729 6.3003,-2.09259 16.8151,-1.66675 21.741,0.8805 2.9968,1.54973 3.242,2.05271 3.242,6.65084 V 282 h -3.5355 c -3.2342,0 -3.6989,-0.38092 -5.4511,-4.46866 -2.0649,-4.8173 -4.8426,-6.29298 -9.5986,-5.0993 -8.586,2.15495 -12.3576,20.45229 -6.2521,30.3312 4.0849,6.60952 13.4589,8.33999 20.2422,3.73676 4.0791,-2.76816 5.1575,-3.01712 6.1453,-1.41874 0.8792,1.42256 -4.1246,6.62557 -8.5737,8.91508 -5.6297,2.89705 -11.7065,3.28861 -17.7805,1.1457 z m 71.4233,0.85475 c -8.6293,-2.67722 -12.0678,-14.66099 -5.8272,-20.30869 2.7425,-2.48191 10.6839,-5.70558 17.5251,-7.11399 l 6.1828,-1.27288 -0.031,-5.76365 c -0.025,-4.80843 -0.4167,-6.07639 -2.3608,-7.65062 -4.4372,-3.59306 -12.1087,-1.31335 -12.1087,3.59832 0,2.98362 -2.4653,5.51472 -5.3714,5.51472 -5.1806,0 -6.2071,-5.57539 -1.832,-9.95044 4.8234,-4.8234 19.5067,-6.67649 26.1323,-3.29801 6.7725,3.4534 7.5131,5.56934 8.0711,23.0605 l 0.5,15.67333 2.9878,0.51502 c 4.2788,0.73755 4.2849,3.26069 0.013,5.29794 -5.4615,2.60437 -10.9248,2.24919 -13.3781,-0.86974 l -2.0227,-2.57141 -4.2999,2.49692 c -5.0559,2.9359 -10.166,3.88821 -14.1806,2.64268 z m 16.1307,-8.58757 c 2.0059,-1.29744 2.25,-2.27378 2.25,-8.99966 0,-7.34152 -0.061,-7.5276 -2.25,-6.92189 -6.3819,1.76549 -10.8765,3.88017 -11.7614,5.53365 -3.0538,5.70614 1.3775,13.84231 6.8117,12.50674 1.4848,-0.36493 3.7122,-1.3184 4.9497,-2.11884 z m 79.75,8.69761 c -17.1351,-4.3574 -24.3069,-22.02856 -15.1368,-37.29703 5.6168,-9.35225 18.285,-13.49058 28.3823,-9.27166 7.0484,2.94502 9.8311,7.00785 10.8733,15.87573 L 1488.2754,291 h -15.6377 c -17.4965,0 -16.7102,-0.40334 -14.529,7.45308 3.053,10.99693 16.4571,14.67979 25.0675,6.8875 1.7545,-1.58787 4.8238,-1.23721 4.8238,0.55111 0,1.60112 -6.2521,7.31596 -9.4698,8.656 -4.1477,1.72738 -11.4073,2.48044 -15.0302,1.55914 z m 12.1102,-33.30564 C 1475.2746,281.12304 1475,278.9911 1475,278.06356 1475,275.09881 1471.1926,272 1467.5499,272 c -2.5268,0 -4.0114,0.75977 -5.9226,3.03105 -2.4012,2.85365 -4.988,9.57033 -4.1884,10.8751 0.2002,0.32662 4.5079,0.44814 9.5728,0.27004 l 9.2088,-0.3238 z M 1502,315.23661 1495.5,313.5 l -0.2999,-5.75 c -0.1694,-3.24694 0.1215,-5.75 0.6682,-5.75 0.5325,0 1.6349,-0.25585 2.4497,-0.56855 1.0364,-0.3977 1.834,0.49908 2.6542,2.98436 1.6806,5.09213 5.2975,7.58419 11.0077,7.58419 5.5516,0 8.0201,-2.0795 8.0201,-6.75616 0,-3.93604 -2.8491,-6.24709 -12.0235,-9.75283 C 1499.0234,292.06984 1496,288.66413 1496,282 c 0,-5.6423 3.2428,-10.36786 8.6712,-12.63597 3.9537,-1.65196 13.8165,-1.77363 19.886,-0.24532 l 4.4428,1.11872 v 5.44771 c 0,5.35299 -0.048,5.4422 -2.75,5.13128 -1.9607,-0.2256 -2.841,-0.95652 -3.0669,-2.54649 -0.7807,-5.49276 -11.7398,-8.62719 -15.5281,-4.44119 -4.1452,4.58041 -0.6345,9.33547 9.558,12.94578 3.5317,1.25098 7.9219,3.52728 9.756,5.05845 2.8707,2.39659 3.3955,3.54103 3.7719,8.22548 0.3625,4.51139 0.037,6.02496 -1.9018,8.85456 -4.7717,6.96251 -15.2273,9.42596 -26.8391,6.3236 z m 84,0.43739 c -7.3555,-1.71282 -11.401,-3.9809 -16.5494,-9.27821 -5.7109,-5.87608 -7.9283,-12.4183 -7.9409,-23.42819 -0.011,-9.6494 1.5558,-14.35042 7.4265,-22.28322 2.7128,-3.66576 5.3422,-5.69535 11.0119,-8.5 7.1112,-3.51768 7.903,-3.68305 17.5,-3.65503 11.764,0.0344 22.1243,2.53665 21.1385,5.10555 -0.3226,0.84077 -0.5866,4.19187 -0.5866,7.44689 0,5.16993 -0.2428,5.91821 -1.9205,5.91821 -1.3591,0 -2.1215,-0.9501 -2.608,-3.25 -2.6353,-12.45933 -21.4403,-14.52214 -31.1872,-3.42107 -6.5453,7.45473 -8.5319,25.38365 -3.897,35.17107 2.7799,5.87017 7.7421,10.7745 12.5119,12.36589 8.5983,2.86871 19.7686,0.34239 23.4711,-5.30828 2.4868,-3.79529 4.6297,-3.31336 4.6297,1.04118 0,9.14769 -17.7227,15.63272 -33,12.07521 z m 162,-0.44406 c -4.9437,-1.31574 -6.48,-2.14894 -6.4167,-3.47994 0.046,-0.9625 0.1584,-3.55 0.25,-5.75 0.2313,-5.55132 3.326,-5.56815 6.1496,-0.0334 2.3418,4.59029 4.8885,6.23344 9.6611,6.23344 5.1526,0 8.356,-2.54953 8.356,-6.65047 0,-4.19587 -2.5223,-6.3791 -11.0578,-9.57116 -3.3741,-1.26181 -7.6664,-3.73877 -9.5384,-5.50436 -2.9299,-2.7632 -3.4038,-3.86199 -3.4038,-7.89175 0,-6.43091 2.2664,-10.34616 7.3163,-12.63888 4.7828,-2.17148 13.4843,-2.526 20.2409,-0.82467 l 4.4428,1.11872 v 5.38128 c 0,5.00833 -0.1658,5.38129 -2.3916,5.38129 -1.7235,0 -2.5687,-0.70552 -3.0254,-2.52544 -1.0732,-4.27574 -4.1052,-6.47456 -8.928,-6.47456 -4.8864,0 -7.655,2.17006 -7.655,6 0,3.55644 2.4219,5.54215 10.9545,8.98166 4.3131,1.73862 9.0713,4.48045 10.6661,6.14625 2.4444,2.5531 2.8719,3.79991 2.83,8.25361 -0.035,3.73524 -0.6794,6.13109 -2.2371,8.3186 -4.2785,6.00871 -15.511,8.37823 -26.2135,5.52982 z m 237.2301,0.28166 c -7.473,-2.09983 -10.8687,-4.06298 -15.7943,-9.13103 -6.4236,-6.60946 -8.729,-13.58803 -8.2192,-24.88057 0.6542,-14.49303 6.2145,-23.58511 18.2234,-29.79846 5.7881,-2.99473 6.576,-3.13299 17.56,-3.08136 7.7064,0.0362 12.8195,0.55231 15.5,1.56446 l 4,1.5104 0.2921,7.65248 c 0.2685,7.03643 0.134,7.65248 -1.6706,7.65248 -1.3606,0 -2.1615,-0.90574 -2.6112,-2.95304 -2.5495,-11.60795 -20.2942,-15.13457 -29.2174,-5.80674 -6.1341,6.41232 -7.7929,11.1505 -7.7929,22.25978 0,11.39381 1.2788,16.03951 5.8473,21.24275 4.0963,4.66546 9.8716,7.208 16.4348,7.23529 6.4116,0.0267 10.7562,-1.70909 14.655,-5.85488 1.6154,-1.71774 3.3275,-3.12316 3.8048,-3.12316 0.4772,0 0.7305,2.1375 0.5629,4.75 l -0.3048,4.75 -6.5,3.26561 c -7.9457,3.99196 -16.8303,4.9769 -24.7699,2.74599 z m -564.1337,-0.77634 c -5.4681,-2.81015 -6.59,-5.93231 -6.6731,-18.57019 C 1414.2712,273.03494 1414.4202,274 1411,274 c -4.2173,0 -4.0609,-3.17213 0.25,-5.06953 2.1528,-0.94756 4.094,-3.03304 5.75,-6.17758 2.1857,-4.15028 2.902,-4.74747 5.6977,-4.75 3.153,-0.003 3.202,0.0706 3.5,5.24711 l 0.3023,5.25 6.25,0.29772 c 5.8513,0.27872 6.25,0.4511 6.25,2.70228 0,2.25118 -0.3987,2.42356 -6.25,2.70228 l -6.25,0.29772 -0.2775,14.88356 c -0.3506,18.80692 0.2351,20.15864 8.3715,19.3189 2.9584,-0.30534 5.6201,-0.16513 5.9147,0.31157 0.6767,1.09491 -3.2681,4.88886 -6.3238,6.082 -3.2904,1.28481 -10.2603,1.09269 -13.0885,-0.36077 z M 620,313.51905 c 0,-0.81452 1.08233,-1.75259 2.40517,-2.08461 4.88761,-1.22671 6.61605,-4.60777 21.43741,-41.93444 8.7734,-22.09526 7.78497,-20.5 12.70179,-20.5 4.90597,0 3.37272,-2.95206 15.84119,30.5 10.96054,29.40641 11.68689,30.8342 16.10296,31.65388 1.09368,0.203 2.13918,1.15142 2.32332,2.1076 C 691.11706,314.84634 689.9028,315 677.07332,315 666.30105,315 663,314.69958 663,313.71924 c 0,-0.70442 1.40957,-1.81282 3.13238,-2.46311 3.59875,-1.35837 3.58555,-2.58952 -0.1344,-12.53198 L 663.8563,293 h -11.82669 -11.8267 l -2.78674,7.64076 -2.78674,7.64075 2.29607,1.85925 c 1.26284,1.02258 2.92122,1.85924 3.68528,1.85924 0.76407,0 1.38922,0.675 1.38922,1.5 0,1.24242 -1.88889,1.5 -11,1.5 -9.04822,0 -11,-0.26277 -11,-1.48095 z M 659.59175,280.75 c -5.95227,-15.55866 -6.94467,-17.78994 -7.5807,-17.04427 C 651.33178,264.50207 643,285.58639 643,286.50899 643,286.77905 647.27113,287 652.49141,287 h 9.4914 z M 692,313.475 c 0,-0.90062 1.25109,-1.77522 3.05569,-2.13614 2.08631,-0.41726 4.86213,-2.65312 8.75,-7.04792 8.73561,-9.87463 8.92976,-10.33422 6.08367,-14.40121 -6.47559,-9.25348 -12.38742,-15.8677 -14.99514,-16.77676 -2.00456,-0.6988 -2.69348,-1.47251 -2.27716,-2.55744 C 693.11082,269.26881 695.26921,269 705.10699,269 716.33333,269 717,269.11211 717,271 c 0,1.33333 -0.66667,2 -2,2 -1.1,0 -2,0.63459 -2,1.4102 0,1.27077 7.50519,11.5898 8.42945,11.5898 0.87109,0 7.57055,-10.11727 7.57055,-11.43276 0,-0.78548 -1.0125,-1.57194 -2.25,-1.74769 C 725.5125,272.6438 724.5,271.825 724.5,271 c 0,-1.2126 1.89135,-1.55512 9.87145,-1.78768 8.75658,-0.25518 9.80126,-0.10477 9.25,1.33179 C 743.27965,271.43482 743,272.35177 743,272.58179 743,272.8118 742.07463,273 740.94362,273 c -1.99479,0 -9.49866,7.01909 -14.62975,13.68462 l -2.45151,3.18461 8.34992,10.31539 c 6.37818,7.87953 8.99195,10.3901 11.06882,10.6318 1.912,0.22252 2.7189,0.89026 2.7189,2.25 0,1.80832 -0.8098,1.93358 -12.5,1.93358 -10.18312,0 -12.5,-0.26554 -12.5,-1.43261 0,-0.78794 0.9,-1.71826 2,-2.06739 1.1,-0.34913 2,-1.01404 2,-1.47759 0,-0.96973 -7.4271,-10.5503 -8.87034,-11.44227 -1.28598,-0.79479 -9.22175,8.5139 -8.87657,10.41225 0.14925,0.82081 1.50336,2.08286 3.00914,2.80456 C 715.2188,314.17257 713.21362,315 702.5,315 693.75683,315 692,314.74484 692,313.475 Z m 116,0.13341 c 0,-0.76538 1.11201,-1.67069 2.47114,-2.01181 4.07171,-1.02193 4.60108,-3.46032 4.305,-19.8297 L 814.5,276.5 811.27164,275 c -4.14208,-1.92455 -4.15093,-3.75536 -0.0216,-4.47863 1.7875,-0.31308 5.46457,-0.96478 8.17127,-1.4482 6.24487,-1.11535 7.57873,-0.57046 7.57873,3.09595 v 2.95515 l 4.61207,-3.31213 c 4.16491,-2.99102 5.28733,-3.31214 11.57684,-3.31214 6.73925,0 7.0733,0.11843 10.31664,3.65752 3.3334,3.63737 3.3619,3.64642 5.17316,1.64359 6.89308,-7.62216 22.55915,-7.62389 26.40905,-0.003 0.91058,1.80251 1.53919,8.19387 1.88856,19.20181 l 0.52368,16.5 3.25,1.43047 c 1.7875,0.78675 3.25,2.02425 3.25,2.75 0,1.02504 -2.90132,1.31953 -13,1.31953 -10.88889,0 -13,-0.24359 -13,-1.5 0,-0.825 0.8449,-1.5 1.87756,-1.5 3.57236,0 4.41567,-2.64404 4.90642,-15.38331 0.5186,-13.46206 -0.52562,-18.87287 -4.00122,-20.73295 -2.85683,-1.52893 -8.60882,-0.39578 -11.42616,2.25097 -2.26346,2.12642 -2.3566,2.78195 -2.3566,16.58611 v 14.3722 l 2.99368,1.70349 C 865.80332,314.10237 863.88278,315 851,315 c -10,0 -12,-0.25 -12,-1.5 0,-0.825 0.60526,-1.5 1.34501,-1.5 0.73976,0 2.12361,-0.86034 3.07522,-1.91186 1.50917,-1.66761 1.68866,-3.78713 1.40499,-16.59064 -0.31084,-14.02955 -0.42964,-14.76325 -2.686,-16.58815 -3.07794,-2.48937 -7.57102,-2.42363 -11.77119,0.17221 L 827,279.16312 v 14.96495 14.96495 l 2.99368,1.70349 C 835.85549,314.13205 833.8952,315 820.5,315 810.48835,315 808,314.72298 808,313.60841 Z m 255.1782,-0.29524 c 0.1787,-0.92775 1.7301,-2.05096 3.4476,-2.496 1.7175,-0.44505 3.5841,-1.37348 4.148,-2.06317 0.9925,-1.21398 21.2686,-49.96681 22.6654,-54.49808 1.1093,-3.59843 3.4391,-5.25592 7.3878,-5.25592 h 3.6842 l 7.9186,20.75 c 4.3553,11.4125 9.5392,25.025 11.5199,30.25 3.333,8.79239 3.8601,9.58409 7.0758,10.62895 1.911,0.62092 3.62,1.85842 3.7978,2.75 0.2863,1.43537 -1.3459,1.62105 -14.25,1.62105 -11.2516,0 -14.5733,-0.29476 -14.5733,-1.2932 0,-0.71127 1.4625,-1.72377 3.25,-2.25 2.7856,-0.8201 3.2294,-1.38543 3.1061,-3.9568 -0.079,-1.65 -1.129,-5.60105 -2.3331,-8.78011 l -2.1892,-5.78011 -12.0677,0.28011 -12.0676,0.28011 -2.3972,6.4146 c -3.0287,8.10424 -2.7577,10.24556 1.4487,11.44669 1.7875,0.51042 3.25,1.53793 3.25,2.28337 0,1.06238 -2.5016,1.35534 -11.5733,1.35534 -10.3188,0 -11.5381,-0.18285 -11.2485,-1.68683 z m 39.1288,-35.55922 c -1.9191,-5.08967 -3.9423,-10.49145 -4.4959,-12.00395 -0.5537,-1.5125 -1.3002,-2.73843 -1.6589,-2.7243 -0.3587,0.0141 -2.7315,5.39803 -5.2729,11.96419 l -4.6207,11.93848 9.1207,0.28582 c 5.0164,0.15719 9.4124,0.17509 9.7688,0.0398 0.3565,-0.13533 -0.922,-4.41033 -2.8411,-9.5 z M 1328,313.60841 c 0,-0.76538 1.112,-1.67069 2.4711,-2.01181 4.0717,-1.02193 4.6011,-3.46032 4.305,-19.8297 L 1334.5,276.5 1331.2716,275 c -3.7676,-1.75057 -4.2235,-3.74618 -1.0216,-4.47177 6.2787,-1.42283 15.2791,-2.39915 15.9482,-1.72999 0.4169,0.4169 0.8804,9.74535 1.0299,20.72988 L 1347.5,309.5 l 3.25,1.43047 c 1.7875,0.78675 3.25,2.02425 3.25,2.75 0,1.02504 -2.9013,1.31953 -13,1.31953 -10.4388,0 -13,-0.27417 -13,-1.39159 z m 296,-0.0309 c 0,-0.78234 1.5187,-1.92367 3.3749,-2.53628 3.1903,-1.05287 3.4089,-1.42651 3.9951,-6.82755 0.8772,-8.08298 0.7016,-43.29902 -0.2334,-46.79725 -0.5831,-2.18156 -1.5144,-3.0444 -3.6959,-3.42418 -1.7659,-0.30743 -3.0543,-1.22446 -3.2662,-2.32471 -0.3306,-1.7164 0.7762,-1.79903 19.9878,-1.4923 19.4778,0.31099 20.5195,0.42881 24.6371,2.78663 11.4351,6.5479 12.0412,22.07023 1.1694,29.94576 -4.5609,3.30386 -6.8205,3.88741 -17.4688,4.51125 l -7,0.4101 -0.2819,10.9974 -0.282,10.9974 3.532,1.16564 c 1.9425,0.64111 3.5319,1.80575 3.5319,2.58809 0,1.1622 -2.5615,1.42245 -14,1.42245 -11.4385,0 -14,-0.26025 -14,-1.42245 z m 32.6429,-32.21239 c 4.6467,-2.20499 6.3571,-5.91792 6.3571,-13.79972 0,-5.79228 -0.3281,-6.90112 -2.8909,-9.76936 -2.6273,-2.94043 -3.4252,-3.23824 -8.75,-3.26578 L 1645.5,254.5 l -0.2775,14.25 -0.2774,14.25 h 4.1263 c 2.2695,0 5.6767,-0.73568 7.5715,-1.63484 z M 1670,313.51342 c 0,-0.81762 1.5026,-2.11441 3.3391,-2.88176 3.7422,-1.56356 4.5445,-3.25357 19.5284,-41.13166 l 7.9116,-20 4.0462,-0.30436 c 3.0831,-0.23191 4.275,0.1251 5.0076,1.5 0.5287,0.9924 5.5359,13.92411 11.1269,28.73714 5.591,14.81303 10.5778,27.7032 11.0817,28.64482 0.504,0.94162 2.2758,2.18596 3.9374,2.7652 1.6616,0.57924 3.0211,1.75157 3.0211,2.60518 0,1.32605 -1.9656,1.55202 -13.5,1.55202 -11.3333,0 -13.5,-0.24074 -13.5,-1.5 0,-0.825 0.6053,-1.5 1.345,-1.5 0.7398,0 2.0861,-0.8189 2.9919,-1.81977 1.5354,-1.69658 1.4721,-2.33973 -0.9354,-9.5 L 1712.8193,293 h -11.78 -11.78 l -2.7354,7.70518 -2.7353,7.70518 2.2165,1.79482 c 1.219,0.98715 2.8416,1.79482 3.6057,1.79482 0.7641,0 1.3892,0.675 1.3892,1.5 0,1.2381 -1.8333,1.5 -10.5,1.5 -8.6245,0 -10.5,-0.26553 -10.5,-1.48658 z m 40.2031,-26.04989 c 0.2951,-0.29505 -1.1537,-5.13255 -3.2196,-10.75 -4.8408,-13.16331 -5.0757,-13.71463 -5.8405,-13.70771 -0.5107,0.005 -4.0379,9.00573 -8.8963,22.70227 -0.307,0.86549 1.9369,1.30404 7.9124,1.54645 4.5875,0.1861 8.6034,0.42996 8.9242,0.54191 0.3209,0.11195 0.8248,-0.0379 1.1198,-0.33292 z m 112.9751,25.84964 c 0.179,-0.92938 1.7779,-2.06335 3.5607,-2.52533 4.0242,-1.04276 4.0311,-1.05602 15.8594,-30.59651 C 1856.4941,245.4876 1854.5899,249 1859.5077,249 h 4.204 l 3.0482,8.25 c 1.6765,4.5375 4.9101,13.2 7.1858,19.25 2.2757,6.05 5.746,15.5 7.7118,21 4.1476,11.60435 5.7318,13.6523 10.6694,13.79226 6.3639,0.18039 6.4872,-0.0483 23.7437,-44.04226 l 7.1585,-18.25 h 4.2467 c 4.9409,0 3.6551,-2.54071 15.665,30.9521 8.842,24.65831 11.5641,30.35443 14.8539,31.08306 1.3722,0.30389 2.6427,1.3203 2.8234,2.25869 0.2971,1.54294 -1.0177,1.70615 -13.7448,1.70615 -11.8429,0 -14.0733,-0.23772 -14.0733,-1.5 0,-0.825 0.6251,-1.5 1.3892,-1.5 0.7641,0 2.3508,-0.7875 3.5261,-1.75 l 2.1368,-1.75 -2.6164,-7.75 -2.6164,-7.75 -6.6597,-0.2133 c -16.7075,-0.53513 -15.3757,-0.88156 -18.0354,4.69166 -1.3067,2.73809 -2.597,6.62738 -2.8673,8.64285 -0.4644,3.46253 -0.2921,3.7366 3.1258,4.97253 1.9895,0.71942 3.6173,1.89264 3.6173,2.60715 0,1.03013 -5.0727,1.29911 -24.5,1.29911 -19.3699,0 -24.5,-0.27079 -24.5,-1.2932 0,-0.71127 1.4625,-1.72377 3.25,-2.25 2.7777,-0.81775 3.2322,-1.39277 3.1276,-3.9568 -0.067,-1.65 -1.1938,-5.7 -2.5034,-9 l -2.3811,-6 -10.4965,-0.25284 c -5.7731,-0.13907 -11.0072,0.0859 -11.6312,0.5 -0.6241,0.41406 -2.2698,4.02495 -3.6573,8.02419 -2.7083,7.80678 -2.4016,9.23899 2.2978,10.73053 1.0968,0.34809 1.9941,1.27757 1.9941,2.06551 0,1.15723 -2.1285,1.43261 -11.0733,1.43261 -9.8498,0 -11.0375,-0.18639 -10.7485,-1.68683 z m 41.0346,-25.85932 c 0.3004,-0.30039 -1.0156,-4.68789 -2.9244,-9.75 -1.9089,-5.06212 -3.9355,-10.47544 -4.5038,-12.02961 -0.5682,-1.55417 -1.3802,-2.45417 -1.8044,-2 -0.4243,0.45417 -2.3614,5.10076 -4.3048,10.32576 -1.9435,5.225 -3.8307,10.26697 -4.194,11.20438 -0.5788,1.49377 0.2466,1.74726 6.6791,2.05131 4.0367,0.1908 8.052,0.43633 8.9228,0.54561 0.8709,0.10929 1.8291,-0.0471 2.1295,-0.34745 z m 68.2881,-2.27685 c -0.3614,-0.92235 -2.2703,-5.952 -4.242,-11.177 -1.9717,-5.225 -3.8925,-9.85843 -4.2684,-10.2965 -0.6658,-0.77584 -10.0543,22.30182 -9.4775,23.2965 0.1594,0.275 4.4197,0.35465 9.4674,0.177 8.1113,-0.28548 9.1012,-0.51783 8.5205,-2 z M 1335.655,258.17126 C 1332.013,254.14695 1335.1127,247 1340.5,247 c 5.4758,0 8.6606,7.73473 4.6713,11.34501 -2.4273,2.19667 -7.4542,2.10488 -9.5163,-0.17375 z"
       id="path1" />
  </g>
</svg>
